<?xml version="1.0" standalone="no"?>
<!DOCTYPE svg PUBLIC "-//W3C//DTD SVG 20010904//EN"
 "http://www.w3.org/TR/2001/REC-SVG-20010904/DTD/svg10.dtd">
<svg version="1.0" xmlns="http://www.w3.org/2000/svg"
 width="1280.000000pt" height="1159.000000pt" viewBox="0 0 1280.000000 1159.000000"
 preserveAspectRatio="xMidYMid meet">
<metadata>
Created by potrace 1.16, written by Peter Selinger 2001-2019
</metadata>
<g transform="translate(0.000000,1159.000000) scale(0.100000,-0.100000)"
fill="#000000" stroke="none">
<path d="M5985 11470 c-189 -14 -351 -38 -619 -91 -413 -82 -908 -214 -1026
-274 -130 -66 -393 -260 -528 -389 -187 -179 -561 -681 -726 -973 -74 -132
-190 -383 -226 -492 -37 -110 -55 -238 -77 -529 -20 -283 -14 -391 46 -822 55
-390 71 -547 81 -810 8 -211 19 -288 42 -317 5 -7 31 -13 56 -15 44 -3 47 -5
50 -33 4 -48 12 -75 21 -75 4 0 26 14 47 31 61 48 78 52 186 38 53 -7 102 -15
108 -19 7 -4 22 -100 36 -226 14 -120 32 -244 40 -274 32 -112 117 -226 152
-204 27 17 39 78 57 281 35 402 90 806 136 988 11 44 41 144 65 222 77 241 99
381 69 433 -19 32 -18 101 0 225 30 197 48 228 164 284 35 17 87 48 115 70 64
48 129 81 270 136 238 92 316 102 545 70 61 -9 116 -13 122 -9 6 3 8 15 6 26
-4 15 -2 18 11 13 68 -26 672 -60 746 -41 24 6 26 11 24 44 -3 36 -2 37 40 42
25 4 51 15 62 28 50 53 222 96 494 123 116 12 272 22 346 22 129 1 139 0 223
-32 105 -38 267 -115 354 -167 41 -24 85 -64 127 -113 35 -42 115 -131 178
-198 91 -97 129 -146 179 -235 91 -160 94 -166 73 -189 -15 -17 -14 -22 15
-86 19 -40 28 -69 22 -71 -33 -11 13 -160 60 -194 16 -12 29 -31 29 -41 0 -11
18 -37 40 -58 22 -21 40 -40 40 -43 0 -9 -86 -56 -102 -56 -8 0 -28 16 -45 35
-63 70 -134 29 -118 -68 6 -32 18 -52 53 -84 45 -42 45 -43 27 -63 -25 -27
-39 -26 -163 16 -123 41 -177 45 -282 22 -71 -16 -141 -24 -416 -48 -66 -6
-141 -17 -167 -25 -26 -8 -74 -17 -107 -21 -75 -8 -100 -27 -110 -84 -13 -74
5 -109 73 -144 88 -45 145 -46 318 -2 196 49 286 59 453 53 174 -6 265 -28
434 -103 228 -101 332 -111 315 -30 -4 20 -4 20 10 3 10 -13 14 -30 10 -53 -4
-27 0 -43 16 -64 12 -17 25 -55 30 -94 6 -38 18 -76 31 -94 16 -21 23 -51 29
-115 7 -70 13 -91 34 -116 14 -17 28 -50 32 -73 9 -58 30 -88 60 -88 25 0 25
0 22 -92 -2 -89 -1 -93 20 -96 17 -3 23 3 28 30 19 87 135 228 189 228 64 0
71 24 27 91 -37 57 -45 95 -36 183 9 100 11 102 75 69 49 -25 64 -28 155 -27
189 1 313 61 329 161 8 47 -6 85 -31 81 -12 -2 -19 10 -28 47 -6 28 -22 65
-34 82 l-24 31 22 35 c13 22 21 51 21 79 0 24 13 109 30 189 39 192 47 266 61
587 14 302 2 738 -26 977 -36 302 -151 674 -253 811 -17 23 -73 76 -126 118
-157 126 -226 221 -226 308 0 69 -27 177 -63 253 -74 155 -239 316 -496 484
-95 62 -184 108 -344 176 -48 21 -136 65 -195 98 -264 147 -497 249 -664 292
-51 13 -149 28 -218 34 -171 14 -758 22 -905 11z"/>
<path d="M4763 7160 c-50 -5 -97 -12 -105 -16 -7 -4 -87 -11 -178 -14 l-165
-7 -145 -62 c-80 -34 -167 -68 -194 -74 -61 -14 -74 -39 -83 -166 -5 -75 -3
-94 11 -116 21 -31 40 -28 106 20 57 41 124 75 148 75 11 0 54 18 97 39 45 23
101 43 130 46 29 4 182 -1 340 -10 421 -25 517 -17 561 50 22 34 12 57 -55
124 -77 77 -129 100 -254 111 -56 5 -106 9 -112 8 -5 0 -51 -4 -102 -8z"/>
<path d="M7590 6793 c0 -13 30 -40 78 -70 36 -24 37 -24 7 -18 -309 68 -445
75 -585 30 -104 -33 -275 -115 -312 -150 -16 -14 -28 -33 -28 -41 0 -29 31
-25 97 12 171 95 180 99 197 85 10 -8 16 -29 16 -53 0 -142 150 -246 278 -193
71 30 109 84 132 185 6 30 14 63 16 72 4 14 15 10 71 -25 103 -65 173 -133
173 -168 0 -24 4 -29 25 -29 34 0 80 24 99 52 22 30 20 71 -4 118 -11 22 -20
55 -20 75 0 21 -7 42 -19 54 -36 36 -221 90 -221 64z"/>
<path d="M4413 6640 c-43 -21 -89 -50 -102 -64 -22 -23 -23 -29 -13 -63 21
-69 70 -143 95 -143 12 0 63 33 117 76 52 42 114 89 137 106 l43 29 10 -23 c5
-13 17 -49 25 -81 30 -104 86 -147 195 -147 105 0 166 46 210 160 23 61 52 92
78 83 9 -3 49 -21 87 -39 85 -41 135 -53 135 -32 0 28 -208 135 -315 163 -135
35 -308 13 -554 -70 -72 -24 -131 -42 -131 -40 0 2 29 25 65 51 36 26 65 54
65 61 0 25 -67 13 -147 -27z"/>
<path d="M4227 3142 c-73 -39 -200 -151 -306 -268 -50 -55 -73 -90 -101 -160
-20 -49 -64 -152 -97 -229 -33 -77 -70 -169 -82 -205 -12 -36 -25 -72 -31 -80
-18 -29 -24 2 -11 58 22 92 25 132 10 132 -13 0 -115 -75 -126 -93 -4 -6 2 -8
15 -5 12 4 22 2 22 -3 0 -17 -41 -30 -75 -23 -37 7 -41 3 -124 -96 -38 -46
-63 -55 -32 -11 12 16 21 37 21 46 0 27 -45 11 -135 -50 -44 -29 -96 -56 -115
-60 -59 -11 -201 -87 -249 -132 -33 -32 -53 -43 -76 -43 -66 0 -223 -69 -286
-125 -27 -24 -57 -37 -123 -53 -91 -22 -156 -55 -241 -123 -27 -22 -61 -42
-75 -45 -101 -22 -293 -127 -306 -168 -11 -33 31 -59 83 -52 99 13 277 100
293 142 6 16 17 24 32 24 31 0 254 110 506 248 111 62 242 132 290 156 48 24
125 69 170 99 52 34 90 53 100 50 13 -6 13 -8 -4 -20 -10 -8 -48 -35 -84 -61
-37 -26 -163 -104 -280 -175 -118 -70 -239 -145 -269 -168 -32 -25 -76 -47
-110 -55 -99 -26 -223 -117 -236 -172 -5 -23 -11 -27 -44 -27 -21 -1 -69 -15
-108 -33 -38 -17 -94 -36 -124 -42 -75 -14 -220 -88 -304 -156 -85 -68 -126
-89 -185 -97 -33 -4 -52 -14 -72 -36 -54 -61 -56 -93 -29 -596 6 -104 13 -245
17 -312 l6 -123 144 0 144 0 -5 167 c-9 246 -24 628 -32 780 -4 93 -3 133 5
133 31 0 60 -325 78 -867 l7 -213 329 0 330 0 -6 24 c-9 35 -23 306 -41 759
-8 213 -20 409 -26 436 -7 34 -18 55 -35 66 -13 8 -24 20 -24 25 0 5 33 19 73
31 88 26 137 50 204 100 58 43 75 76 49 94 -24 18 -20 25 14 25 44 0 93 23
112 53 10 13 53 52 98 86 76 57 124 81 137 68 3 -4 -44 -57 -105 -120 -155
-160 -163 -181 -136 -334 14 -79 17 -163 18 -443 1 -338 -8 -468 -25 -355 -4
28 -12 172 -18 320 -19 443 -26 535 -45 553 -14 14 -23 12 -109 -31 -51 -25
-101 -55 -111 -66 -32 -36 -36 -86 -19 -286 11 -129 16 -321 17 -597 l1 -408
116 0 115 0 24 58 c13 31 62 140 108 242 106 232 141 326 149 402 5 47 12 67
33 88 50 51 280 749 280 851 0 41 16 69 40 69 12 0 22 9 26 24 7 29 -11 123
-28 143 -18 23 -73 14 -152 -23 -68 -33 -106 -39 -106 -17 0 4 15 17 33 29 54
34 465 274 470 274 16 0 -10 -43 -44 -73 -24 -22 -39 -45 -39 -58 0 -22 -1
-22 -14 -4 -12 16 -18 17 -39 8 -14 -6 -37 -27 -52 -47 -52 -69 -15 -135 52
-91 l26 17 -7 -28 c-4 -16 -36 -102 -72 -190 -95 -239 -162 -498 -150 -576 5
-32 2 -42 -24 -71 -37 -42 -55 -86 -64 -152 -11 -77 -44 -180 -88 -275 -21
-47 -46 -110 -54 -140 -13 -49 -34 -80 -55 -80 -13 0 -68 -122 -85 -188 -8
-35 -13 -75 -10 -90 5 -23 1 -29 -26 -42 -17 -8 -38 -25 -46 -38 l-14 -22 221
0 221 0 0 33 c0 18 9 58 20 89 11 31 35 150 55 265 58 339 173 924 256 1300
38 172 92 353 124 413 13 24 14 23 8 -15 -3 -22 -25 -123 -48 -225 -24 -102
-47 -207 -51 -235 -3 -27 -17 -93 -30 -145 -35 -143 -104 -518 -189 -1027 -41
-250 -64 -372 -81 -430 l-6 -23 161 0 161 0 -7 57 c-10 77 -10 518 0 566 16
76 26 24 20 -111 -5 -133 6 -317 29 -449 l10 -63 73 0 72 0 43 46 c40 44 42
49 37 93 -3 25 -13 71 -22 101 -35 126 -44 644 -15 905 23 200 151 688 237
905 52 131 153 345 176 375 15 18 15 14 1 -43 -8 -35 -34 -126 -59 -201 -25
-76 -45 -145 -45 -155 0 -38 113 -402 153 -496 17 -40 54 -90 67 -90 4 0 1 30
-7 68 -12 53 -14 115 -9 292 6 240 22 390 61 560 35 153 48 330 42 553 -5 203
-16 267 -45 267 -9 0 -48 -17 -85 -38z"/>
<path d="M8236 3115 c-51 -51 -61 -213 -76 -1160 -6 -357 -15 -690 -21 -740
-5 -49 -25 -159 -44 -244 -45 -201 -45 -244 1 -213 30 19 112 235 204 534 84
274 138 612 147 928 6 219 -5 346 -41 452 -27 83 -10 72 32 -19 65 -142 111
-379 112 -578 1 -157 16 -310 36 -351 12 -24 25 -37 44 -41 27 -5 27 -6 12
-35 -11 -23 -17 -87 -23 -247 -8 -212 -19 -305 -39 -339 -7 -12 -9 8 -10 70 0
107 -10 138 -45 138 -18 0 -28 -7 -35 -25 -15 -39 -28 -177 -45 -465 -9 -146
-22 -323 -30 -393 -19 -163 -19 -164 5 -184 16 -14 17 -19 6 -32 -20 -24 -36
-79 -36 -127 l0 -44 95 0 96 0 -5 33 c-51 309 -77 574 -66 649 6 41 7 42 17
18 16 -37 31 -123 43 -240 13 -121 26 -189 42 -207 6 -7 31 -13 57 -13 l46 0
-32 -20 c-43 -26 -63 -68 -63 -134 0 -90 -8 -86 160 -86 136 0 148 1 144 18
-2 9 -15 116 -29 237 -13 121 -49 371 -80 555 -69 409 -87 533 -83 585 l3 40
29 -70 c15 -38 32 -103 37 -143 4 -40 22 -128 38 -195 17 -67 35 -168 40 -225
11 -116 24 -144 78 -170 l36 -17 -29 -5 c-26 -4 -29 -10 -32 -45 -5 -54 17
-211 35 -258 13 -32 22 -39 60 -49 l45 -11 -37 -13 c-21 -7 -42 -19 -46 -26
-5 -7 -9 -57 -9 -110 l0 -98 129 0 129 0 -5 48 c-3 26 -13 119 -23 207 -11 88
-24 230 -30 315 -25 355 -32 379 -110 381 l-35 0 42 19 c57 25 60 46 29 177
-22 92 -79 397 -156 833 -10 58 -26 186 -34 285 -18 200 -25 233 -69 320 -109
217 -318 427 -517 519 -64 30 -73 31 -94 11z"/>
<path d="M8941 2341 c-20 -13 -9 -140 19 -216 25 -69 31 -96 66 -295 14 -80
45 -235 69 -345 53 -243 82 -455 140 -1030 25 -242 45 -443 45 -447 0 -5 58
-8 129 -8 l128 0 -4 53 c-14 195 -60 483 -92 585 -11 34 -24 111 -30 170 -10
117 -22 154 -58 177 -12 9 -23 23 -23 33 0 22 75 180 97 204 35 39 44 -17 18
-112 -21 -77 -18 -198 6 -310 57 -262 90 -439 109 -580 12 -85 23 -170 26
-187 l5 -33 354 0 353 0 6 73 c3 39 11 153 16 252 36 622 64 895 93 895 7 0 8
-53 4 -167 -9 -224 -45 -901 -53 -985 l-6 -68 134 0 135 0 7 150 c3 82 10 171
15 197 5 27 15 122 21 213 24 346 50 550 70 550 23 0 5 -389 -39 -830 -6 -52
-13 -137 -17 -188 l-6 -92 140 0 140 0 6 48 c18 134 57 584 62 702 2 74 10
159 16 188 8 39 8 58 0 77 -18 40 -112 92 -278 156 -183 69 -222 89 -251 123
-13 14 -33 26 -46 26 -27 0 -47 17 -47 40 0 20 -44 62 -90 85 -100 51 -446
273 -437 281 11 12 150 -53 244 -113 78 -50 324 -168 419 -202 77 -27 79 -28
76 -58 l-3 -31 78 1 c66 2 84 -2 116 -22 21 -13 37 -25 35 -26 -2 -1 -31 2
-66 8 -132 21 -92 -13 163 -140 251 -126 299 -163 210 -163 -50 0 -62 -25 -70
-155 -3 -60 -17 -222 -30 -360 -13 -137 -27 -284 -30 -325 -3 -41 -8 -90 -11
-108 l-5 -32 139 0 c164 0 146 -21 162 180 6 74 17 209 25 300 8 91 15 209 15
263 0 90 1 97 20 97 13 0 22 -9 26 -27 17 -66 -11 -661 -36 -775 l-8 -38 138
0 139 0 5 43 c11 88 36 378 46 526 5 85 15 160 21 167 6 8 23 14 38 14 79 1
92 31 34 80 -68 56 -462 246 -653 314 -25 9 -61 29 -80 46 l-35 29 38 1 c51 0
60 25 21 57 -16 12 -77 43 -137 68 -59 25 -131 60 -160 79 -84 53 -628 333
-1093 562 -237 117 -461 231 -497 253 -136 83 -220 118 -246 102z"/>
<path d="M1390 1154 c-144 -48 -395 -174 -575 -288 -82 -53 -186 -114 -230
-136 -110 -55 -265 -167 -265 -192 0 -10 13 -134 30 -275 16 -140 30 -257 30
-259 0 -2 138 -4 306 -4 l306 0 -6 27 c-3 16 -15 184 -27 374 -20 325 -20 439
1 439 21 0 28 -44 34 -215 7 -193 22 -461 32 -562 l6 -63 129 0 129 0 0 98 c0
209 -31 794 -46 870 -6 28 -2 32 77 80 46 28 114 67 151 86 36 20 69 40 73 46
12 19 -50 9 -155 -26z"/>
<path d="M11809 747 c-58 -31 -68 -61 -68 -208 -1 -101 -18 -323 -37 -486 l-6
-53 141 0 c133 0 141 1 141 19 0 11 5 32 11 48 10 27 11 27 25 9 8 -11 14 -32
14 -48 l0 -28 385 0 385 0 0 69 0 69 -82 77 c-45 43 -97 84 -114 93 -30 14
-35 14 -58 -1 -27 -18 -48 -14 -100 21 -40 28 -137 124 -131 130 3 3 28 -5 55
-18 27 -13 53 -20 57 -16 4 3 -13 27 -37 51 -42 43 -81 58 -95 36 -19 -32
-213 85 -316 190 -77 79 -97 84 -170 46z"/>
<path d="M4520 541 c0 -99 11 -128 52 -146 65 -27 78 -51 104 -202 13 -76 24
-150 24 -165 l0 -28 100 0 c55 0 100 2 100 5 0 3 -11 22 -24 43 -12 20 -62
111 -111 202 -101 191 -217 370 -239 370 -3 0 -6 -36 -6 -79z"/>
<path d="M214 503 c-27 -21 -76 -52 -109 -69 -48 -24 -61 -37 -66 -60 -9 -39
-10 -256 -3 -322 l7 -52 138 0 c126 0 139 2 139 18 0 9 -7 71 -15 137 -7 66
-17 180 -21 253 -4 72 -10 132 -14 132 -4 0 -29 -17 -56 -37z"/>
<path d="M7852 166 c-46 -47 -82 -92 -82 -103 0 -38 41 -63 102 -63 l55 0 7
121 c4 67 6 123 3 125 -2 2 -40 -34 -85 -80z"/>
</g>
</svg>
