<?xml version="1.0" standalone="no"?>
<!DOCTYPE svg PUBLIC "-//W3C//DTD SVG 20010904//EN"
 "http://www.w3.org/TR/2001/REC-SVG-20010904/DTD/svg10.dtd">
<svg version="1.0" xmlns="http://www.w3.org/2000/svg"
 width="1280.000000pt" height="1161.000000pt" viewBox="0 0 1280.000000 1161.000000"
 preserveAspectRatio="xMidYMid meet">
<metadata>
Created by potrace 1.16, written by Peter Selinger 2001-2019
</metadata>
<g transform="translate(0.000000,1161.000000) scale(0.100000,-0.100000)"
fill="#000000" stroke="none">
<path d="M5955 11399 c-66 -10 -208 -29 -315 -43 -198 -26 -364 -57 -500 -95
-41 -11 -124 -30 -185 -41 -112 -22 -530 -151 -627 -194 -65 -29 -393 -269
-500 -366 -138 -126 -402 -457 -601 -754 -164 -245 -368 -663 -401 -822 -39
-187 -51 -343 -51 -679 0 -357 0 -354 70 -775 19 -113 39 -236 46 -275 6 -40
14 -287 17 -582 4 -281 10 -515 15 -519 15 -16 21 11 28 149 8 150 25 221 60
253 16 14 24 16 37 7 9 -6 16 -17 14 -23 -1 -7 -14 -51 -29 -99 -21 -70 -26
-108 -27 -206 -1 -141 17 -217 64 -265 28 -29 30 -36 30 -108 0 -99 -9 -114
-39 -62 -12 22 -19 44 -16 50 11 18 8 86 -6 108 -52 84 -67 -73 -23 -237 43
-158 112 -362 147 -431 31 -61 37 -68 107 -100 12 -6 15 -35 16 -166 1 -169 6
-209 35 -264 47 -92 109 -125 277 -146 64 -9 131 -17 148 -20 27 -4 35 -12 52
-52 11 -26 23 -65 27 -87 12 -68 114 -384 162 -500 24 -60 82 -180 128 -265
45 -85 107 -202 136 -260 l54 -105 0 -145 c0 -199 1 -197 -140 -269 -38 -19
-87 -54 -110 -76 -22 -23 -48 -45 -57 -48 -22 -8 -93 -99 -144 -184 -22 -38
-68 -133 -103 -213 -34 -80 -69 -158 -78 -174 -12 -22 -14 -44 -8 -98 3 -39 9
-75 11 -82 3 -7 -8 -26 -24 -43 -21 -21 -34 -50 -46 -104 -29 -127 -30 -144
-11 -173 17 -25 17 -27 -14 -61 -39 -45 -74 -159 -75 -245 l-1 -65 55 -3 55
-3 27 163 c15 90 31 192 34 228 9 84 26 131 64 178 63 79 90 201 50 222 -20
10 -19 13 19 58 40 47 108 176 151 287 24 62 100 171 172 247 46 49 31 23 -21
-36 l-35 -40 30 -20 c16 -12 56 -47 88 -79 33 -31 66 -57 73 -57 22 0 51 37
62 77 6 21 15 99 21 173 22 281 75 430 152 430 29 0 58 19 58 37 0 8 -14 31
-31 51 -36 41 -54 79 -75 165 -9 34 -33 89 -53 122 -20 33 -54 100 -76 149
-21 48 -56 109 -77 135 -49 58 -89 141 -123 256 -14 50 -47 155 -71 235 -25
80 -52 170 -61 200 -36 124 -37 125 -88 85 l-33 -24 -16 42 c-19 50 -21 176
-5 241 9 36 8 49 -5 74 -10 19 -19 77 -25 149 -5 65 -15 134 -24 154 -20 47
-25 84 -38 268 -12 174 -19 201 -50 201 -23 0 -23 8 -3 -237 4 -49 3 -73 -4
-73 -6 0 -30 23 -54 51 -24 27 -70 70 -104 94 -101 73 -119 100 -133 196 -10
65 -20 95 -44 131 -43 63 -60 62 -86 -7 -32 -85 -28 -158 11 -234 41 -79 106
-141 148 -141 24 0 42 -11 82 -52 27 -29 56 -65 63 -79 8 -14 34 -38 59 -54
53 -33 61 -52 76 -175 5 -47 15 -112 20 -145 22 -136 8 -241 -39 -288 l-29
-30 -99 56 c-139 78 -137 76 -114 168 10 41 22 93 26 116 6 39 5 44 -20 55
-37 17 -76 0 -97 -42 -20 -42 -27 -30 -31 50 l-2 55 67 5 c36 3 70 8 74 13 4
4 -7 26 -25 50 -49 65 -72 102 -151 236 -45 77 -79 125 -92 129 -14 3 -18 11
-14 24 7 29 -3 48 -32 59 -22 9 -24 13 -18 49 17 109 18 187 1 260 -12 52 -19
140 -22 286 -6 237 -7 232 73 335 24 30 44 59 44 63 0 4 -9 19 -20 33 -11 14
-20 40 -20 57 0 23 -9 41 -35 66 -19 18 -39 47 -44 64 -6 17 -15 105 -21 196
-11 157 -24 265 -51 411 -10 53 -10 89 1 181 13 112 12 117 -9 160 -11 24 -21
50 -21 58 0 7 -4 27 -9 44 -6 17 -17 78 -26 136 -14 89 -15 134 -6 300 8 166
14 206 35 269 30 86 32 130 10 172 -15 30 -14 34 26 124 22 52 50 136 61 187
11 51 36 127 55 169 18 42 50 121 70 175 44 122 52 137 154 265 111 139 128
167 139 222 10 54 22 71 73 103 49 31 51 30 27 -11 -13 -22 -19 -44 -15 -58 4
-15 -1 -27 -17 -40 -22 -17 -22 -17 -3 -32 24 -18 56 -19 90 -3 28 12 34 34
39 131 l2 59 90 29 c69 23 101 28 137 24 51 -6 63 3 54 39 -10 42 -63 58 -164
50 -103 -8 -120 2 -79 43 16 17 42 28 76 34 37 6 66 20 115 57 39 30 90 58
131 72 36 12 69 28 71 35 8 19 -14 55 -38 64 -18 6 -9 11 45 26 57 15 72 24
106 65 28 33 56 54 88 66 27 9 81 39 121 66 47 32 90 52 123 58 29 6 67 20 87
32 34 21 39 21 121 9 47 -7 97 -15 110 -18 21 -5 23 -3 19 19 -5 25 -2 26 74
43 52 11 94 28 126 49 50 35 158 65 309 86 94 14 120 5 145 -47 12 -25 19 -28
61 -26 55 2 77 16 77 49 0 17 -7 25 -25 30 -34 8 -31 20 7 40 26 13 48 15 112
10 l79 -7 34 33 33 32 30 -32 c25 -28 32 -31 55 -22 67 26 439 40 505 19 52
-16 310 -25 310 -10 0 6 -15 18 -32 26 l-33 15 48 -4 c34 -2 63 -14 101 -39
29 -20 91 -54 137 -78 46 -23 116 -64 156 -92 72 -50 103 -56 103 -19 0 10 6
27 14 37 13 18 17 16 87 -37 75 -58 133 -88 168 -88 11 0 39 -9 64 -19 38 -16
47 -26 58 -63 l14 -43 53 3 c49 2 59 -1 122 -43 37 -25 83 -62 101 -83 47 -54
96 -82 147 -82 23 0 54 -7 67 -16 27 -18 33 -34 11 -34 -7 0 -19 -7 -26 -15
-17 -21 -1 -56 34 -75 24 -12 29 -12 37 0 8 11 12 12 16 3 2 -7 13 -23 23 -35
15 -20 21 -21 44 -10 15 6 31 24 37 38 l10 27 24 -23 c31 -29 31 -41 0 -70
-33 -31 -32 -43 9 -63 19 -8 42 -29 51 -44 9 -16 32 -38 51 -51 27 -18 34 -29
34 -56 0 -22 13 -52 40 -92 22 -33 40 -69 40 -81 0 -77 123 -260 239 -356 33
-27 33 -28 16 -47 -21 -24 -15 -33 36 -49 23 -7 48 -28 72 -59 46 -61 122
-204 138 -262 7 -25 17 -51 22 -58 13 -17 26 -85 36 -192 5 -47 20 -139 34
-205 14 -66 31 -165 36 -220 6 -55 18 -122 26 -150 18 -55 32 -247 21 -289 -7
-28 -62 -96 -78 -96 -14 0 -2 123 19 208 13 57 13 65 -1 80 -8 10 -27 43 -40
75 -14 31 -32 57 -39 57 -18 0 -107 -92 -107 -112 0 -23 27 -41 52 -35 23 6
68 -25 68 -46 0 -6 -10 -1 -23 11 -29 28 -53 28 -60 1 -7 -26 7 -110 27 -168
9 -24 20 -67 25 -95 5 -28 20 -98 34 -156 79 -324 79 -323 63 -393 -8 -35 -25
-120 -36 -188 -17 -98 -27 -133 -51 -168 -16 -24 -29 -58 -29 -74 0 -16 14
-88 31 -160 29 -126 30 -131 12 -148 -10 -10 -30 -21 -45 -24 -24 -6 -29 -3
-44 29 -14 29 -15 40 -6 61 26 57 1 75 -43 30 -37 -36 -34 -93 9 -174 18 -35
41 -68 51 -74 25 -13 197 -2 262 17 77 24 143 109 143 185 0 40 -28 56 -59 35
-31 -22 -46 -12 -77 48 -15 29 -35 64 -45 77 -11 13 -19 32 -19 42 0 16 8 19
43 19 l44 0 6 114 c5 77 15 141 32 197 63 209 60 167 59 854 l0 630 -43 180
c-126 527 -195 687 -336 776 -56 34 -143 95 -230 159 -46 35 -47 35 -41 81 8
56 -10 237 -29 304 -19 66 -120 199 -228 301 -80 76 -276 220 -402 296 -33 20
-99 50 -147 66 -151 53 -220 87 -341 166 -65 42 -141 88 -168 102 -58 29 -431
158 -503 174 -27 6 -174 22 -325 35 -339 30 -607 32 -786 4z"/>
<path d="M6133 10954 c-7 -20 24 -62 68 -92 27 -19 44 -22 94 -20 53 3 60 6
63 25 4 27 -25 47 -114 79 -76 28 -102 30 -111 8z"/>
<path d="M6013 10588 c-26 -12 -29 -30 -10 -46 39 -33 200 -82 305 -94 61 -6
114 -9 118 -5 25 25 -45 66 -156 90 -36 8 -96 27 -133 41 -74 28 -91 30 -124
14z"/>
<path d="M6530 10526 c0 -25 61 -63 185 -116 145 -62 168 -70 195 -63 27 7 26
46 -1 72 -34 32 -151 89 -215 106 -77 20 -164 20 -164 1z"/>
<path d="M5310 10128 c-14 -6 -47 -14 -74 -19 -53 -9 -88 -35 -106 -80 -22
-51 -9 -63 64 -55 102 10 121 20 150 80 40 82 31 102 -34 74z"/>
<path d="M6631 10010 c-37 -16 -15 -28 84 -46 222 -39 355 -46 355 -19 0 19
-22 30 -105 48 -90 20 -302 31 -334 17z"/>
<path d="M5352 9750 c-42 -10 -46 -14 -38 -43 12 -49 179 -87 231 -53 55 36
19 83 -76 96 -72 11 -72 11 -117 0z"/>
<path d="M3366 9653 c-68 -55 -138 -141 -134 -162 6 -28 47 -24 101 10 29 19
58 42 65 51 8 10 31 39 53 64 50 58 52 84 5 84 -25 0 -48 -11 -90 -47z"/>
<path d="M4927 9073 c-16 -16 -4 -33 36 -51 23 -11 70 -42 104 -70 l62 -50
-20 -25 c-10 -14 -40 -33 -65 -43 -29 -11 -50 -27 -59 -45 -13 -24 -12 -30 8
-60 26 -39 81 -73 103 -65 16 6 16 40 -1 94 -7 21 -5 22 47 22 59 0 73 8 108
59 l24 34 -40 33 c-41 35 -72 42 -92 22 -9 -9 -12 -4 -12 25 0 50 -23 93 -60
112 -29 15 -131 21 -143 8z"/>
<path d="M6840 9064 c0 -3 9 -17 20 -31 11 -14 17 -29 14 -34 -3 -5 -40 -9
-83 -9 -81 0 -110 -13 -98 -44 10 -25 75 -34 212 -31 134 3 181 13 192 41 11
28 -11 47 -68 59 -30 6 -70 20 -90 33 -33 20 -99 31 -99 16z"/>
<path d="M6023 8929 c-6 -6 -38 -17 -70 -23 -45 -9 -59 -16 -61 -31 -4 -32 12
-45 69 -57 95 -19 148 -15 217 16 34 16 62 34 62 40 0 23 -24 36 -65 36 -23 0
-50 7 -61 15 -23 17 -75 20 -91 4z"/>
<path d="M4590 8876 c0 -64 16 -76 102 -76 54 0 76 -4 91 -17 45 -41 176 0
177 56 0 23 0 23 -83 16 -80 -6 -85 -5 -161 29 -43 20 -89 36 -102 36 -22 0
-24 -4 -24 -44z"/>
<path d="M5678 8780 c-45 -45 -49 -83 -10 -88 13 -2 27 -14 32 -27 12 -31 24
-37 72 -37 46 1 53 6 62 43 4 20 -4 40 -35 88 -50 73 -66 76 -121 21z"/>
<path d="M4468 8803 c-1 -5 -20 -21 -40 -36 -46 -34 -48 -53 -7 -62 44 -10
159 4 187 21 30 19 26 54 -8 71 -27 14 -126 18 -132 6z"/>
<path d="M4289 8695 c-8 -9 -33 -18 -55 -22 -41 -6 -74 -28 -74 -48 0 -20
-119 -125 -143 -127 -12 0 -34 0 -48 1 -32 2 -63 -33 -81 -91 -9 -32 -9 -48 5
-90 15 -49 15 -53 -2 -82 -10 -17 -24 -49 -31 -71 -14 -46 -34 -65 -66 -65
-13 0 -26 -5 -29 -10 -3 -6 -12 -82 -19 -171 l-13 -161 -31 -29 c-41 -38 -45
-89 -9 -89 13 0 32 9 42 20 10 11 31 20 46 20 19 0 33 8 42 23 15 23 100 296
176 563 23 81 74 163 111 180 14 7 43 17 66 23 23 6 62 29 87 51 37 33 52 40
86 40 l41 0 0 40 c0 78 -61 135 -101 95z"/>
<path d="M8327 7992 c-21 -23 -37 -67 -37 -101 0 -38 73 -121 105 -121 34 0
48 31 36 78 -6 20 -17 46 -25 57 -8 11 -19 40 -25 63 -13 45 -28 52 -54 24z"/>
<path d="M8422 7503 c3 -46 15 -91 37 -141 18 -40 39 -110 47 -156 16 -93 47
-188 94 -291 29 -62 34 -84 41 -200 10 -163 17 -222 35 -310 8 -38 24 -130 34
-204 11 -73 23 -137 26 -142 12 -20 63 -9 83 17 12 15 21 31 21 35 0 5 18 49
40 98 37 82 41 99 50 222 6 74 19 164 30 201 20 67 26 144 12 164 -4 6 -16 14
-28 18 -18 6 -109 136 -148 214 -21 41 -66 47 -66 8 0 -14 4 -27 9 -31 5 -3
15 -22 21 -43 7 -20 28 -61 48 -90 27 -39 36 -65 40 -107 5 -62 -4 -80 -48
-89 -38 -7 -37 -14 1 -62 25 -32 30 -45 25 -74 -3 -19 -6 -47 -6 -62 0 -16 -4
-28 -10 -28 -5 0 -10 24 -10 53 0 64 -11 87 -34 68 -14 -12 -16 -10 -16 12 0
13 -7 44 -15 67 -19 53 -19 50 5 50 13 0 20 7 20 20 0 20 -9 24 -42 21 -22 -3
-23 13 -1 49 16 27 15 31 -10 88 -15 33 -27 68 -27 78 0 11 -9 60 -20 111 -10
50 -24 131 -30 180 -14 107 -46 240 -66 270 -8 13 -35 29 -66 38 -82 24 -81
25 -76 -52z"/>
<path d="M3691 7476 c-16 -19 -28 -103 -41 -296 -18 -272 -28 -342 -52 -362
-40 -35 -68 -19 -68 40 0 15 -5 34 -10 42 -8 12 -13 11 -37 -8 -15 -12 -43
-32 -60 -43 -18 -12 -33 -26 -33 -31 0 -6 13 -26 30 -44 38 -43 53 -100 51
-194 -1 -41 -2 -113 -3 -160 -1 -111 27 -336 47 -366 8 -13 15 -29 15 -37 0
-7 17 -42 38 -76 38 -63 70 -90 107 -91 20 0 20 7 21 328 0 421 20 656 88
1022 13 74 27 156 31 182 l7 47 -48 30 c-55 35 -67 37 -83 17z"/>
<path d="M7702 7219 c-12 -4 -27 -20 -32 -34 -11 -28 -4 -27 -165 -25 -212 3
-266 8 -299 25 -31 17 -33 17 -84 -9 -33 -16 -68 -26 -96 -26 -25 0 -56 -5
-70 -11 -20 -10 -29 -8 -53 8 -50 36 -68 37 -106 3 -19 -16 -42 -30 -50 -30
-22 0 -64 -54 -77 -98 -41 -148 36 -181 108 -47 21 38 35 53 62 61 52 17 62 9
38 -31 -36 -63 3 -100 82 -76 52 16 59 14 72 -14 10 -22 17 -25 69 -25 31 0
126 13 211 29 238 46 316 54 502 49 l171 -3 82 -58 c88 -62 186 -117 209 -117
41 0 -21 157 -95 242 -61 68 -247 158 -329 158 -21 0 -46 6 -57 14 -29 19 -67
26 -93 15z"/>
<path d="M4860 7070 c-99 -6 -160 -22 -166 -45 -2 -5 18 -20 44 -32 49 -23
126 -82 118 -90 -5 -6 -53 19 -103 53 -30 21 -46 25 -80 21 -30 -3 -43 0 -47
9 -8 22 -34 16 -52 -11 l-16 -24 -49 19 c-28 10 -65 30 -84 44 -18 14 -44 26
-57 26 -13 0 -54 -22 -92 -50 -38 -27 -90 -56 -116 -64 -26 -8 -73 -26 -105
-41 -54 -26 -59 -32 -91 -101 -19 -40 -39 -95 -46 -122 -22 -98 12 -108 87
-27 36 39 59 55 76 55 14 0 48 12 75 26 27 15 65 35 84 45 20 10 79 25 131 33
116 18 306 7 457 -24 114 -24 177 -25 226 -5 30 13 208 44 254 45 6 0 12 11
12 25 0 17 -23 51 -69 102 -115 130 -114 130 -206 135 -44 2 -127 2 -185 -2z"/>
<path d="M6955 6701 c-108 -19 -228 -123 -299 -261 -65 -124 -61 -150 19 -150
27 0 42 9 76 45 23 25 65 59 93 77 28 17 81 53 117 80 37 26 71 48 78 48 11 0
15 -12 26 -85 10 -59 39 -108 92 -154 41 -35 55 -41 93 -41 130 0 230 83 230
191 0 64 11 99 31 99 10 0 68 -34 128 -75 61 -41 115 -75 121 -75 19 0 10 -20
-15 -32 -20 -9 -25 -18 -25 -49 0 -46 8 -69 25 -69 19 0 134 127 141 157 17
66 -33 107 -219 181 -125 50 -253 68 -424 59 -139 -8 -206 -25 -346 -88 -60
-27 -111 -48 -113 -46 -4 4 170 118 216 142 44 22 54 38 32 47 -20 8 -24 8
-77 -1z"/>
<path d="M5182 6599 c7 -20 215 -109 255 -109 30 0 34 3 31 23 -5 37 -121 89
-215 95 -60 4 -75 2 -71 -9z"/>
<path d="M4403 6545 c-48 -24 -133 -103 -133 -124 0 -21 47 -20 95 4 60 30
185 121 185 135 0 20 -95 10 -147 -15z"/>
<path d="M9484 6545 c-14 -22 -16 -41 -10 -124 6 -94 6 -100 -17 -127 -34 -41
-49 -73 -43 -90 7 -17 38 -18 69 -2 12 6 29 14 36 18 8 4 24 19 35 34 17 23
21 41 19 104 -2 94 -31 205 -55 210 -9 2 -24 -8 -34 -23z"/>
<path d="M4685 6540 c-84 -22 -283 -121 -326 -161 -29 -27 -31 -33 -25 -75 3
-25 8 -49 11 -54 12 -19 138 -80 166 -80 27 0 30 3 27 27 -2 21 -14 34 -45 51
-54 29 -50 37 66 119 145 103 163 104 174 13 3 -27 13 -63 22 -80 36 -70 165
-125 238 -101 37 13 87 61 110 106 8 17 25 63 37 103 17 59 25 72 37 67 57
-21 262 -154 279 -180 25 -39 96 -57 121 -32 15 15 15 20 -1 60 -21 56 -36 70
-127 113 -169 82 -232 102 -338 113 -162 17 -344 13 -426 -9z"/>
<path d="M9616 6361 c-3 -5 -10 -40 -16 -77 -5 -38 -17 -94 -25 -124 -8 -30
-15 -76 -15 -102 0 -38 4 -49 22 -59 31 -17 48 11 48 82 0 31 7 70 15 85 15
29 20 138 9 182 -6 22 -28 30 -38 13z"/>
<path d="M9427 6163 c-3 -5 -10 -73 -17 -153 -6 -80 -16 -165 -21 -189 -13
-59 -90 -213 -139 -276 -33 -43 -40 -60 -40 -96 0 -52 13 -69 52 -69 15 0 28
-1 28 -3 0 -2 -7 -24 -16 -50 -16 -46 -16 -46 -40 -30 -15 9 -29 12 -34 7 -5
-5 -24 -52 -43 -105 -39 -106 -75 -182 -105 -219 l-20 -24 -34 18 c-31 17 -37
17 -64 3 -38 -20 -74 -54 -74 -72 0 -20 56 -63 99 -76 22 -6 54 -9 73 -5 40 7
155 83 231 151 l56 50 11 129 c11 123 13 133 57 220 55 109 119 262 139 331 7
28 17 101 20 163 6 100 5 114 -11 132 -12 14 -20 41 -23 81 -3 46 -9 63 -25
74 -23 16 -53 20 -60 8z"/>
<path d="M9215 6120 c-28 -29 -30 -37 -33 -126 l-4 -94 -70 -64 c-38 -36 -86
-70 -106 -77 -56 -17 -98 -64 -132 -145 -30 -73 -31 -98 -4 -108 26 -10 52 12
110 94 68 98 90 116 153 124 57 8 102 46 150 126 23 39 26 55 24 125 -1 90
-21 168 -44 173 -8 1 -28 -11 -44 -28z"/>
<path d="M8676 5198 c-3 -13 -7 -49 -11 -82 -4 -43 -20 -87 -61 -170 -31 -61
-64 -132 -75 -158 -24 -61 -69 -288 -69 -350 0 -40 -6 -56 -40 -100 -27 -36
-49 -81 -66 -138 -15 -47 -40 -111 -56 -143 -16 -32 -34 -84 -39 -115 -6 -31
-26 -85 -44 -119 -35 -65 -85 -197 -85 -227 0 -24 -56 -131 -101 -194 -40 -56
-57 -108 -42 -123 17 -17 41 1 57 42 9 21 19 39 22 39 3 0 19 -8 35 -17 34
-20 44 -51 53 -163 5 -56 13 -85 32 -113 13 -20 30 -69 38 -107 15 -83 46
-131 133 -209 40 -35 67 -69 74 -91 17 -50 86 -187 100 -195 19 -12 30 10 36
70 l6 58 19 -22 c10 -13 18 -35 18 -50 0 -27 7 -41 70 -155 25 -45 30 -60 20
-66 -21 -13 -37 -2 -75 51 -23 32 -42 49 -56 49 -21 0 -21 -3 -16 -57 4 -32
20 -98 36 -147 28 -87 28 -90 13 -143 -12 -45 -13 -71 -4 -160 9 -93 9 -112
-5 -141 -15 -31 -15 -38 1 -87 21 -66 36 -79 100 -82 28 -2 107 -5 175 -9
l124 -6 -6 89 c-7 92 -30 198 -49 220 -17 21 -57 16 -67 -9 -5 -13 -21 -57
-37 -98 -33 -89 -40 -100 -65 -100 -23 0 -23 2 -4 64 17 57 19 119 5 147 -16
28 -33 250 -21 262 12 12 55 -55 96 -153 23 -54 38 -76 52 -78 12 -2 23 4 27
14 8 20 -11 253 -25 307 -11 41 -22 44 -74 23 -20 -9 -35 -11 -35 -5 0 16 61
37 129 45 39 4 65 12 68 21 3 7 -13 37 -36 66 -23 28 -62 82 -86 118 -25 37
-52 69 -60 73 -8 3 -29 33 -46 68 -39 78 -184 223 -288 288 -112 71 -154 103
-179 140 -23 33 -24 40 -17 145 12 201 35 391 54 446 10 30 50 126 89 214 134
307 192 485 247 746 19 92 42 185 51 208 16 42 65 91 89 91 7 0 18 7 25 15 10
12 5 17 -27 32 -47 22 -62 52 -72 145 -5 40 -12 81 -16 91 -10 24 -34 21 -39
-5z"/>
<path d="M5733 4810 c-71 -15 -105 -37 -101 -67 7 -63 117 -92 204 -54 85 38
107 76 62 105 -30 19 -112 27 -165 16z"/>
<path d="M6465 4792 c-33 -5 -99 -66 -92 -85 5 -14 21 -17 89 -17 55 0 105 -7
147 -20 53 -17 70 -18 105 -9 95 26 126 83 56 105 -35 12 -268 31 -305 26z"/>
<path d="M6094 4587 c-20 -53 44 -92 153 -92 78 0 125 22 131 62 4 29 -17 35
-155 41 -106 4 -123 2 -129 -11z"/>
<path d="M7105 4145 c-5 -2 -35 -10 -65 -18 -30 -9 -98 -19 -150 -22 -52 -4
-133 -15 -180 -26 -219 -51 -633 -59 -895 -17 -143 23 -186 25 -400 23 l-240
-2 -3 -31 c-7 -72 35 -92 193 -92 67 0 124 7 174 20 98 26 183 25 311 -5 189
-44 276 -50 440 -30 88 11 268 20 455 25 189 4 325 12 347 19 43 14 98 56 98
76 0 43 -49 88 -85 80z"/>
<path d="M6763 3838 c-46 -26 -147 -93 -178 -119 -33 -28 -183 -89 -254 -104
-106 -21 -248 -28 -321 -15 -117 22 -150 24 -150 7 0 -37 142 -113 230 -122
56 -7 197 22 314 65 28 10 78 26 111 35 73 20 103 38 115 70 6 16 20 26 42 30
44 9 68 27 77 62 5 20 20 35 51 51 48 24 60 55 25 60 -11 1 -39 -8 -62 -20z"/>
<path d="M8233 2758 c-4 -7 -7 -76 -7 -153 0 -130 3 -148 35 -250 33 -107 34
-115 33 -270 -1 -172 -33 -521 -64 -701 -11 -62 -46 -201 -79 -310 -33 -110
-71 -242 -86 -294 -15 -52 -63 -173 -107 -269 -73 -160 -118 -291 -118 -346 0
-14 8 -25 20 -28 11 -3 20 -13 20 -22 0 -19 -26 -73 -48 -97 -14 -17 -10 -18
66 -18 l81 0 6 38 c31 196 49 259 141 484 83 204 162 443 212 643 55 215 59
241 82 514 11 130 22 247 25 261 30 164 23 433 -14 528 -21 53 -104 204 -145
265 -27 39 -40 45 -53 25z"/>
<path d="M4054 2633 c-32 -32 -68 -126 -69 -177 l0 -50 65 -37 c36 -21 69 -38
73 -38 13 -1 107 201 107 230 0 32 -23 54 -79 74 -56 19 -76 19 -97 -2z"/>
<path d="M4272 2495 c-21 -27 -47 -94 -140 -360 -54 -153 -56 -165 -56 -260 0
-81 6 -126 33 -235 47 -187 82 -288 204 -581 125 -301 156 -416 198 -724 16
-123 31 -166 73 -218 19 -24 42 -60 51 -80 l15 -37 100 0 c55 0 100 3 100 8 0
4 -19 39 -41 77 -23 39 -49 88 -59 110 -10 23 -38 74 -64 115 -47 77 -57 102
-31 80 41 -34 59 23 26 88 -10 20 -26 73 -36 117 -10 44 -32 109 -51 145 -36
70 -224 491 -280 627 -58 139 -78 253 -78 438 0 170 7 217 69 512 19 90 35
172 35 183 0 30 -44 26 -68 -5z"/>
<path d="M5552 2512 c-21 -14 -10 -44 25 -68 17 -11 101 -49 185 -82 172 -68
283 -91 473 -99 132 -6 238 10 410 62 187 57 260 103 187 118 -28 6 -58 0
-222 -39 -58 -13 -119 -17 -270 -17 -231 -1 -317 12 -535 78 -161 48 -232 61
-253 47z"/>
<path d="M3923 2315 c-14 -10 -25 -34 -33 -73 -7 -31 -19 -74 -28 -96 -16 -37
-15 -39 6 -56 12 -10 45 -23 73 -30 46 -11 53 -11 70 7 23 22 68 146 69 185 0
34 -21 54 -68 68 -50 13 -64 13 -89 -5z"/>
<path d="M3560 2272 c-25 -16 -76 -46 -114 -67 -43 -24 -76 -50 -88 -71 -18
-30 -23 -33 -67 -32 -48 0 -105 -23 -161 -63 -14 -10 -81 -43 -150 -73 -69
-29 -154 -70 -190 -91 -36 -20 -92 -47 -125 -60 -104 -39 -244 -114 -260 -139
-13 -19 -29 -26 -71 -32 -64 -8 -190 -66 -281 -129 -35 -25 -76 -48 -91 -51
-15 -4 -79 -35 -142 -69 -63 -34 -227 -120 -363 -191 -264 -138 -340 -186
-345 -222 -4 -27 23 -30 50 -5 24 21 109 56 233 94 55 17 154 53 220 79 66 26
158 60 205 75 109 36 164 63 224 113 27 22 80 52 120 66 39 15 112 49 161 76
50 27 143 77 207 110 65 33 148 79 185 101 38 23 119 66 181 95 61 29 146 76
187 105 42 28 78 49 82 46 10 -11 -17 -36 -61 -57 -35 -17 -70 -42 -148 -105
-9 -8 -32 -22 -50 -31 -18 -9 -44 -26 -58 -36 -14 -11 -52 -32 -86 -48 -33
-15 -114 -61 -180 -101 -65 -41 -149 -89 -185 -107 -97 -47 -119 -67 -119
-107 0 -26 -6 -39 -25 -51 -17 -11 -25 -25 -25 -46 l0 -30 59 4 c74 5 177 55
226 110 39 42 43 62 19 76 -13 7 -7 13 32 28 27 10 85 46 130 81 45 34 116 84
158 112 43 28 93 64 112 81 19 16 40 30 46 30 13 0 233 135 263 161 11 10 81
49 155 87 90 47 139 78 146 93 56 116 75 210 44 217 -8 1 -35 -10 -60 -26z"/>
<path d="M8976 2258 c-9 -36 -7 -129 5 -194 17 -95 35 -116 145 -163 52 -22
106 -41 119 -41 29 0 55 34 55 72 0 34 13 42 33 20 13 -14 14 -26 6 -61 -24
-107 67 -229 200 -267 30 -9 78 -32 108 -50 85 -55 199 -97 274 -102 65 -4 67
-5 73 -34 4 -21 15 -33 42 -44 20 -8 53 -26 73 -39 71 -47 221 -92 221 -67 0
13 -70 76 -125 113 -61 41 -150 78 -187 79 -18 0 -28 5 -28 15 0 32 -171 115
-310 151 -36 9 -78 27 -93 40 -16 13 -37 24 -46 24 -10 0 -30 9 -44 20 -14 11
-32 20 -40 20 -9 0 -19 5 -22 10 -8 13 -7 13 82 -11 53 -15 94 -20 132 -16 52
4 58 2 81 -24 17 -20 66 -46 157 -83 72 -29 200 -93 285 -142 129 -74 408
-214 471 -237 11 -4 21 -17 24 -28 6 -20 11 -21 65 -16 51 5 65 2 94 -18 l35
-24 -43 -3 c-35 -2 -43 -7 -43 -23 0 -22 -9 -17 337 -186 199 -97 244 -127
173 -116 -22 3 -66 9 -97 13 l-58 7 0 -36 c0 -49 27 -65 143 -85 103 -18 127
-14 127 21 0 13 6 32 14 42 14 19 16 19 86 -15 39 -19 76 -41 83 -48 6 -8 -14
-1 -45 14 -69 34 -94 28 -82 -19 9 -35 10 -88 3 -245 -3 -90 -2 -105 13 -116
19 -14 187 -30 212 -20 31 12 45 115 27 199 -6 30 -45 57 -123 84 -17 6 -29
14 -25 17 3 3 27 -4 52 -15 60 -26 67 -26 102 3 27 23 31 23 63 10 65 -28 80
7 29 69 -21 26 -26 37 -15 37 29 0 63 -19 127 -70 35 -29 74 -56 86 -61 12 -4
47 -29 78 -53 67 -55 108 -77 144 -78 19 -1 27 -6 28 -20 4 -43 68 -105 253
-241 32 -23 46 -41 48 -61 3 -24 1 -28 -14 -22 -42 16 -141 84 -173 120 -78
85 -110 112 -180 150 -59 31 -75 36 -82 25 -11 -18 -11 -220 0 -238 10 -16
142 -55 181 -53 14 0 36 2 50 4 21 2 29 -4 48 -42 13 -26 22 -58 20 -75 l-3
-30 197 -1 c109 -1 198 2 198 6 0 11 -73 103 -94 119 -14 11 -17 22 -13 51 l5
38 -44 7 c-35 5 -44 10 -44 26 0 28 -43 68 -125 117 -38 22 -97 61 -130 86
-33 25 -67 46 -75 46 -9 0 -20 13 -26 29 -6 15 -33 43 -60 61 -27 19 -70 51
-96 72 -25 21 -79 56 -120 78 -73 40 -1655 831 -1778 889 -36 17 -89 45 -119
62 -29 18 -108 56 -175 86 -66 30 -130 63 -141 73 -26 24 -363 195 -440 223
-74 28 -207 106 -277 164 -29 24 -56 43 -59 43 -4 0 -9 -10 -13 -22z"/>
<path d="M3880 1993 c-30 -8 -62 -22 -72 -31 -19 -20 -68 -171 -68 -211 0 -16
7 -34 15 -41 22 -18 103 -5 131 21 32 30 90 213 78 247 -11 32 -17 33 -84 15z"/>
<path d="M3485 1959 c-53 -64 -104 -187 -125 -304 -7 -44 -17 -66 -39 -85 -53
-49 -98 -237 -61 -260 21 -13 27 -6 34 42 9 53 19 65 66 78 45 12 50 22 95
198 19 75 44 170 55 211 21 80 26 136 11 145 -5 4 -21 -8 -36 -25z"/>
<path d="M9053 1864 c-15 -40 21 -246 49 -281 6 -7 25 -13 43 -13 48 0 75 37
75 105 0 59 -25 102 -98 168 -46 41 -60 45 -69 21z"/>
<path d="M3070 1708 c-118 -60 -125 -65 -128 -95 -4 -40 1 -41 99 -8 90 31
143 30 147 -2 4 -25 30 -30 63 -13 26 14 25 61 -1 78 -11 7 -20 23 -20 36 0
13 -8 34 -18 46 l-17 21 -125 -63z"/>
<path d="M3763 1650 c-12 -5 -26 -17 -32 -28 -16 -31 -41 -191 -47 -307 -8
-161 -41 -384 -77 -515 -17 -63 -31 -135 -31 -160 l-1 -45 55 -3 c30 -1 62 2
70 8 12 7 16 46 21 197 7 216 45 442 106 642 55 181 57 189 43 206 -14 16 -72
19 -107 5z"/>
<path d="M8507 1635 c-3 -17 -9 -102 -12 -190 -3 -88 -12 -254 -20 -370 -9
-116 -22 -313 -30 -440 -9 -126 -20 -300 -26 -385 -5 -85 -14 -176 -18 -202
l-8 -48 86 0 c84 1 85 1 65 19 -18 14 -19 19 -8 27 17 11 18 27 8 315 -5 157
-4 228 4 233 9 6 16 -17 38 -131 6 -32 34 -44 75 -32 19 5 63 14 98 19 41 6
72 16 84 28 19 19 19 21 -5 133 -28 133 -36 141 -105 116 -105 -37 -171 -34
-199 8 -14 22 -14 26 6 53 28 38 37 82 44 211 5 78 3 114 -7 136 -11 25 -11
35 -1 62 11 26 11 58 -1 190 -19 206 -23 229 -45 255 l-18 22 -5 -29z"/>
<path d="M9240 1645 c-11 -13 -11 -24 0 -58 31 -106 77 -157 140 -157 45 0 55
10 70 72 15 60 6 77 -69 122 -64 39 -119 47 -141 21z"/>
<path d="M3911 1553 c-11 -38 -25 -95 -31 -128 -6 -33 -23 -105 -37 -160 -20
-74 -27 -130 -30 -215 -1 -63 -5 -173 -9 -245 -4 -76 -2 -145 3 -165 6 -22 7
-45 1 -60 -13 -36 -21 -239 -11 -285 7 -31 16 -44 40 -56 l32 -16 -23 -11
c-32 -14 -41 -60 -26 -125 16 -68 27 -87 48 -87 23 0 122 58 128 75 3 7 -1 62
-10 122 -23 165 -34 269 -52 498 -23 307 -20 396 27 721 23 161 21 204 -11
204 -15 0 -23 -14 -39 -67z"/>
<path d="M3065 1578 c-16 -6 -37 -17 -45 -24 -9 -7 -33 -20 -54 -29 l-38 -16
6 -57 c15 -129 11 -122 75 -121 31 0 75 -2 98 -6 35 -6 42 -4 46 12 12 40 17
141 9 193 -7 52 -9 55 -37 57 -16 1 -43 -3 -60 -9z"/>
<path d="M2822 1518 c-27 -7 -37 -18 -53 -55 -11 -26 -40 -68 -65 -95 -31 -34
-44 -56 -44 -77 0 -44 39 -161 54 -161 16 0 82 48 113 81 33 36 45 106 32 188
-9 59 -8 73 6 94 19 30 6 38 -43 25z"/>
<path d="M9513 1515 c-3 -9 -2 -33 2 -53 9 -44 9 -36 -1 -233 l-7 -156 109 5
c60 2 111 6 113 8 10 9 12 213 2 231 -6 12 -32 28 -60 38 -27 9 -57 25 -66 35
-23 26 -17 25 56 -6 73 -30 91 -26 87 18 -3 28 -12 36 -88 80 -86 49 -136 60
-147 33z"/>
<path d="M9117 1513 c-11 -10 -8 -62 9 -154 17 -94 38 -138 79 -165 25 -16 27
-16 43 0 27 27 24 168 -5 222 -40 74 -102 122 -126 97z"/>
<path d="M8643 1494 c-3 -8 -1 -92 4 -185 12 -191 3 -272 -42 -398 -15 -40
-25 -84 -23 -99 3 -24 8 -27 48 -30 66 -5 148 15 155 38 7 24 -9 151 -31 234
-18 70 -21 315 -4 347 21 38 38 22 44 -43 4 -35 9 -87 13 -115 l5 -53 93 0
c122 0 155 7 155 33 0 11 -10 75 -22 143 l-22 124 -115 -1 c-67 -1 -128 3
-144 10 -42 17 -106 14 -114 -5z"/>
<path d="M3322 1393 c-5 -10 -15 -40 -21 -68 -7 -27 -35 -100 -62 -161 -30
-70 -52 -136 -58 -178 -5 -37 -20 -84 -32 -104 -12 -20 -41 -80 -65 -132 l-42
-95 41 -43 41 -42 -50 0 -51 0 -48 -102 c-27 -57 -49 -118 -49 -138 -1 -32 3
-37 40 -55 108 -52 96 -91 -16 -53 -60 20 -62 20 -82 2 -22 -20 -108 -188
-108 -211 0 -10 38 -13 185 -13 l184 0 11 37 c17 61 41 223 35 233 -4 6 -24
10 -46 10 -31 0 -39 4 -39 18 0 24 31 52 57 52 11 0 26 6 32 14 15 18 37 95
51 178 11 62 10 71 -8 107 l-21 40 33 19 c37 22 40 32 71 210 10 56 12 89 5
97 -6 8 1 42 24 106 40 113 60 226 46 263 -11 30 -45 35 -58 9z"/>
<path d="M3477 1373 c-21 -41 -35 -108 -42 -199 l-7 -82 33 -7 c88 -17 91 -35
8 -50 l-54 -10 -18 -70 c-10 -39 -19 -108 -20 -155 -2 -77 0 -85 18 -88 11 -3
31 -8 44 -13 23 -9 23 -10 6 -29 -9 -10 -35 -22 -56 -25 -26 -5 -45 -15 -55
-30 -19 -28 -43 -160 -44 -232 l0 -53 45 0 c57 0 58 -14 2 -29 -24 -7 -49 -21
-56 -32 -14 -24 -51 -191 -51 -236 0 -33 0 -33 50 -33 46 0 51 2 60 28 6 15
29 44 53 64 l42 38 11 183 c10 154 15 190 34 226 26 51 42 132 45 221 1 43 10
87 27 130 32 79 52 203 43 263 -4 28 -1 75 10 126 23 112 18 121 -55 121 -55
0 -61 -2 -73 -27z"/>
<path d="M9351 1373 c-12 -14 -19 -33 -16 -42 2 -9 11 -61 20 -115 16 -112 33
-142 63 -113 14 15 17 37 17 135 0 124 -11 162 -45 162 -10 0 -28 -12 -39 -27z"/>
<path d="M9835 1273 c-4 -10 -9 -68 -12 -129 -7 -145 0 -159 93 -190 99 -33
101 -32 119 29 23 74 32 249 14 264 -14 11 -154 43 -189 43 -10 0 -21 -8 -25
-17z"/>
<path d="M2995 1271 c-35 -7 -55 -42 -82 -143 l-17 -66 32 -52 c18 -29 31 -54
30 -55 -2 -1 -18 -10 -36 -19 -44 -23 -72 -86 -79 -181 -10 -123 11 -153 66
-97 26 26 69 133 110 272 10 36 33 98 49 137 37 87 54 170 41 195 -10 19 -53
22 -114 9z"/>
<path d="M10172 1243 c-27 -70 -50 -278 -34 -301 7 -10 45 -15 129 -19 l120
-6 5 80 c4 64 10 90 32 127 36 62 27 73 -69 78 -68 3 -77 6 -108 36 -40 39
-61 41 -75 5z"/>
<path d="M2492 1226 c-117 -63 -156 -103 -145 -144 5 -20 12 -22 79 -22 40 0
96 5 124 11 l51 11 -3 86 c-4 105 -11 109 -106 58z"/>
<path d="M2085 1243 c-86 -21 -235 -77 -251 -94 -18 -20 -18 -21 1 -35 39 -29
125 -15 288 48 78 30 93 48 65 76 -12 12 -64 14 -103 5z"/>
<path d="M9235 1171 c-67 -10 -67 -6 -14 -361 4 -30 12 -113 18 -183 l10 -129
45 -40 c26 -22 46 -44 46 -49 0 -5 -11 -14 -24 -19 -32 -12 -41 -67 -31 -195
l7 -94 50 -18 c31 -11 61 -31 77 -50 23 -29 32 -33 75 -33 l49 0 -7 56 c-7 64
-29 113 -54 120 -53 16 -65 40 -28 54 22 8 26 16 26 51 0 82 -21 167 -57 226
-21 36 -39 84 -48 129 -7 39 -21 88 -29 109 -9 21 -26 105 -38 187 -20 143
-20 150 -3 187 26 59 18 66 -70 52z"/>
<path d="M10470 1042 c0 -170 -1 -167 68 -180 99 -19 147 -23 161 -13 7 5 24
46 37 91 27 94 23 115 -28 125 -18 4 -66 25 -107 47 -41 22 -87 44 -103 48
l-28 9 0 -127z"/>
<path d="M2111 1115 c-98 -35 -127 -54 -118 -78 8 -20 51 -26 130 -18 124 13
117 -22 -10 -48 -100 -21 -106 -31 -98 -155 3 -49 12 -104 20 -122 l14 -34
120 0 121 0 0 78 c0 74 -36 387 -46 404 -8 13 -34 8 -133 -27z"/>
<path d="M8975 1134 c-22 -7 -57 -15 -78 -19 -49 -8 -57 -29 -46 -119 11 -91
26 -134 49 -141 25 -8 202 14 218 28 15 12 10 73 -14 172 -23 94 -44 107 -129
79z"/>
<path d="M1720 1104 c-19 -7 -43 -13 -53 -13 -18 -1 -19 -10 -12 -153 6 -147
19 -255 31 -267 3 -3 61 -6 129 -7 121 -1 124 0 120 20 -2 12 -7 67 -10 124
-3 57 -8 109 -12 117 -3 10 -20 15 -47 15 -94 1 -156 33 -156 81 0 26 38 25
67 -3 18 -17 34 -22 69 -20 54 2 64 7 64 32 0 13 -14 23 -51 35 -33 11 -53 24
-56 36 -6 22 -31 23 -83 3z"/>
<path d="M2737 1095 c-28 -27 -32 -82 -32 -416 0 -350 1 -359 51 -359 14 0 31
11 43 29 28 38 79 167 87 219 9 54 -10 56 -65 7 -36 -33 -40 -34 -45 -17 -8
25 11 237 29 323 8 36 24 90 35 119 12 29 20 65 18 79 -3 24 -7 26 -54 29 -37
2 -56 -2 -67 -13z"/>
<path d="M9492 989 c-17 -85 -23 -191 -14 -224 8 -30 9 -30 83 -31 41 -1 87
-7 102 -13 16 -6 39 -11 53 -11 l25 0 -3 138 -3 137 -80 23 c-44 12 -96 25
-117 28 l-36 6 -10 -53z"/>
<path d="M1205 972 c-72 -26 -144 -57 -160 -68 -43 -31 -252 -154 -261 -154
-4 0 -35 -26 -68 -57 -34 -32 -70 -63 -81 -69 -17 -10 -18 -14 -7 -51 7 -22
23 -57 37 -78 22 -31 24 -40 13 -53 -16 -18 -17 -207 -2 -222 16 -16 225 18
248 40 18 18 19 24 7 102 -17 112 -23 122 -69 113 -21 -3 -66 -8 -102 -11 -61
-4 -64 -4 -40 11 14 8 57 24 95 36 39 12 76 27 84 35 8 7 17 46 21 93 4 45 10
84 14 88 10 10 34 -28 50 -79 31 -100 44 -105 161 -59 82 31 95 50 95 133 0
104 -22 123 -105 93 -46 -16 -69 -19 -61 -6 3 4 27 14 53 21 57 17 230 104
261 133 12 11 22 29 22 39 0 31 -63 21 -205 -30z"/>
<path d="M2442 1010 c-29 -4 -55 -10 -57 -11 -4 -6 -9 -155 -7 -225 1 -43 6
-64 16 -67 27 -10 185 18 203 36 14 13 18 40 21 120 2 58 -1 114 -7 130 -10
25 -14 27 -63 26 -29 -1 -77 -5 -106 -9z"/>
<path d="M10781 994 c0 -11 6 -48 12 -83 16 -80 32 -93 146 -122 l85 -21 28
31 c56 62 34 98 -101 163 -98 48 -171 62 -170 32z"/>
<path d="M1445 925 c-38 -19 -82 -48 -97 -65 -25 -27 -28 -38 -28 -105 l0 -75
119 0 c66 0 122 4 125 9 10 15 19 197 12 235 -6 31 -11 36 -34 35 -15 0 -58
-15 -97 -34z"/>
<path d="M9837 897 c-3 -8 -9 -62 -13 -120 l-7 -106 78 -50 c43 -28 81 -51 86
-51 20 0 33 53 37 157 6 152 4 159 -55 167 -27 3 -64 9 -84 12 -27 4 -38 2
-42 -9z"/>
<path d="M10140 842 c-19 -15 -23 -32 -30 -117 -8 -111 -4 -159 15 -175 8 -7
52 -10 111 -8 l99 3 6 45 c3 25 9 96 13 158 l6 112 -99 0 c-80 0 -103 -3 -121
-18z"/>
<path d="M10461 813 c-5 -10 -12 -54 -15 -98 -4 -44 -9 -101 -12 -127 l-6 -48
136 0 136 0 -1 93 c-1 135 -3 138 -79 157 -36 9 -75 21 -87 28 -31 17 -61 15
-72 -5z"/>
<path d="M8923 780 c-16 -7 -23 -18 -23 -37 1 -55 37 -215 51 -224 13 -8 178
-2 208 7 14 4 13 49 -6 212 l-6 52 -101 -1 c-55 0 -111 -4 -123 -9z"/>
<path d="M10794 738 c-11 -18 -16 -211 -6 -227 6 -8 53 -19 116 -28 92 -14
109 -14 122 -2 9 10 16 52 20 132 l7 118 -35 -6 c-22 -4 -60 0 -98 9 -73 19
-116 20 -126 4z"/>
<path d="M11137 704 c-4 -4 -7 -63 -7 -131 l0 -123 25 0 c14 0 51 -9 82 -20
66 -23 96 -25 111 -7 15 18 33 196 22 217 -13 25 -216 81 -233 64z"/>
<path d="M9497 686 c-6 -15 43 -242 67 -314 9 -25 16 -59 16 -76 0 -17 7 -91
17 -164 l17 -132 37 0 37 0 6 118 c4 64 9 132 12 150 3 23 1 32 -9 32 -7 0
-22 7 -33 15 -18 15 -18 15 7 9 35 -7 39 7 46 176 4 108 3 137 -8 146 -11 9
-180 54 -201 54 -3 0 -8 -6 -11 -14z"/>
<path d="M2518 655 c-20 -8 -57 -17 -82 -20 l-45 -7 6 -127 c3 -69 10 -130 14
-136 8 -8 120 21 169 45 23 11 39 68 39 142 1 116 -16 134 -101 103z"/>
<path d="M1503 630 c-12 -5 -49 -12 -82 -16 -76 -8 -95 -22 -95 -65 1 -52 14
-143 23 -157 9 -15 114 -31 205 -32 l59 0 -7 79 c-10 118 -39 202 -70 200 -6
0 -21 -4 -33 -9z"/>
<path d="M11880 615 c-19 -13 -40 -24 -47 -24 -25 -2 -37 -47 -37 -133 1 -102
15 -133 66 -141 18 -3 55 -13 81 -23 46 -18 49 -18 61 -2 19 26 42 197 29 217
-5 9 -23 18 -39 19 -44 6 -54 18 -41 51 22 60 -12 77 -73 36z"/>
<path d="M2237 614 c-4 -4 -45 -10 -93 -15 -48 -4 -91 -12 -96 -17 -5 -5 -7
-62 -6 -127 l3 -119 125 -1 125 0 3 103 c3 118 -10 182 -37 182 -10 0 -21 -3
-24 -6z"/>
<path d="M520 580 c-14 -11 -58 -39 -99 -62 -41 -22 -82 -49 -93 -60 -27 -27
-23 -72 7 -95 23 -16 24 -21 15 -53 -5 -19 -10 -70 -10 -114 l0 -79 43 6 c46
5 143 39 170 60 21 16 33 131 18 171 -11 28 -13 29 -69 23 l-57 -6 56 29 c67
34 75 43 90 101 23 87 -12 126 -71 79z"/>
<path d="M1691 581 c-11 -7 -12 -30 -6 -114 4 -58 12 -113 18 -121 12 -16 120
-35 205 -36 l42 0 0 94 c0 51 -3 114 -6 140 l-7 46 -116 0 c-64 0 -122 -4
-130 -9z"/>
<path d="M9827 583 c-11 -18 -27 -132 -27 -195 0 -57 3 -70 18 -74 9 -3 51
-21 93 -41 42 -20 82 -33 88 -29 14 9 15 234 1 271 -5 14 -22 30 -37 35 -16 5
-41 16 -56 25 -30 16 -73 20 -80 8z"/>
<path d="M1170 565 c-22 -27 -67 -45 -109 -45 -35 0 -41 -3 -47 -26 -10 -38 1
-193 14 -206 9 -9 26 -5 75 20 34 18 70 32 80 32 37 0 57 36 56 103 -1 106
-34 164 -69 122z"/>
<path d="M3634 526 c-11 -8 -31 -16 -44 -18 -18 -2 -28 -12 -37 -39 -17 -54
-27 -219 -14 -251 10 -26 14 -28 68 -28 32 0 69 3 82 7 l24 6 -5 151 c-3 83
-9 159 -13 169 -9 21 -33 22 -61 3z"/>
<path d="M10444 479 c-11 -18 -18 -237 -9 -294 l7 -47 66 7 c119 12 135 17
144 50 13 50 28 215 22 240 -5 20 -15 25 -67 34 -136 22 -154 23 -163 10z"/>
<path d="M10094 344 c3 -70 9 -130 12 -135 8 -13 123 -46 173 -50 41 -4 46 -2
52 21 4 14 7 85 8 158 l1 132 -127 0 -126 0 7 -126z"/>
<path d="M8970 435 c-20 -24 15 -260 42 -276 7 -5 51 -9 97 -9 l83 0 -3 126
c-4 123 -5 126 -32 150 -24 21 -38 24 -101 24 -53 0 -77 -4 -86 -15z"/>
<path d="M10772 399 c-12 -36 -37 -238 -31 -244 2 -2 58 -8 123 -15 95 -9 120
-9 127 1 22 37 43 238 26 256 -5 4 -39 11 -75 15 -37 3 -88 9 -113 13 -46 7
-47 7 -57 -26z"/>
<path d="M8775 395 c-22 -8 -59 -14 -83 -14 -67 -1 -82 -14 -82 -68 0 -64 19
-168 35 -190 12 -17 16 -16 68 5 41 17 70 22 114 20 l58 -3 0 106 c-1 83 -5
112 -18 133 -19 29 -33 30 -92 11z"/>
<path d="M181 350 c-30 -21 -76 -44 -104 -51 l-49 -12 6 -36 c3 -20 6 -84 6
-143 l0 -108 42 0 c73 0 151 31 167 67 6 13 14 92 18 174 7 174 6 176 -86 109z"/>
<path d="M11116 358 c-3 -18 -11 -75 -17 -126 -10 -80 -10 -96 3 -108 16 -17
92 -38 180 -52 l57 -9 11 71 c20 132 21 142 11 168 -13 34 -46 51 -138 72 -97
22 -100 21 -107 -16z"/>
<path d="M2473 317 l-83 -32 0 -101 c0 -56 -3 -116 -6 -133 -6 -30 -6 -31 32
-31 22 0 58 9 82 20 42 19 43 19 75 0 42 -26 69 -25 94 3 47 51 101 195 87
231 -8 20 -58 21 -74 1 -18 -22 -28 -19 -45 14 -20 39 -43 61 -63 60 -9 0 -54
-15 -99 -32z"/>
<path d="M1350 176 c0 -69 5 -137 10 -151 9 -24 14 -26 43 -21 17 3 66 9 107
12 41 4 81 12 89 18 11 8 13 33 8 116 -3 58 -8 112 -12 121 -7 19 -70 29 -177
29 l-68 0 0 -124z"/>
<path d="M11461 282 c-16 -31 -27 -237 -12 -246 12 -8 91 -23 170 -33 31 -4
46 -1 52 8 5 8 9 69 9 135 l0 121 -77 13 c-43 6 -90 14 -105 17 -19 4 -29 0
-37 -15z"/>
<path d="M1102 251 l-83 -41 3 -102 3 -103 32 -3 c17 -2 46 4 63 13 29 15 34
15 55 1 14 -9 38 -16 55 -16 l30 0 -1 113 c-1 61 -4 126 -8 142 -9 45 -48 44
-149 -4z"/>
<path d="M1700 254 c-12 -30 -12 -72 -4 -177 l7 -77 118 0 119 0 0 125 0 126
-34 -6 c-21 -4 -60 1 -108 14 -92 26 -87 26 -98 -5z"/>
<path d="M2065 268 c-11 -6 -23 -16 -28 -22 -7 -10 -3 -109 9 -204 l5 -43 122
3 122 3 3 118 c1 65 -1 125 -6 134 -8 13 -30 17 -108 19 -61 2 -107 -1 -119
-8z"/>
<path d="M11802 262 c-19 -12 -30 -62 -38 -167 l-7 -95 133 0 133 0 -6 75
c-10 117 -31 146 -125 175 -73 23 -72 23 -90 12z"/>
<path d="M9802 237 c-11 -13 -27 -103 -35 -190 l-5 -47 120 0 120 0 -3 84 c-5
101 -15 116 -102 145 -71 24 -81 25 -95 8z"/>
<path d="M874 169 c-5 -8 -35 -10 -100 -6 l-94 6 0 -84 0 -85 131 0 130 0 -7
73 c-3 39 -11 80 -16 90 -10 19 -33 23 -44 6z"/>
<path d="M3645 140 c-18 -19 -39 -30 -57 -30 -33 0 -51 -27 -46 -73 l3 -32
118 -3 119 -3 -7 23 c-13 44 -46 112 -62 130 -22 25 -35 23 -68 -12z"/>
<path d="M10086 93 c-3 -21 -6 -50 -6 -65 l0 -28 120 0 120 0 0 40 c0 49 -9
54 -115 70 -44 6 -87 13 -96 16 -12 3 -18 -5 -23 -33z"/>
<path d="M500 99 c-19 -10 -41 -19 -48 -19 -27 0 -93 -44 -90 -60 3 -12 24
-16 120 -18 l116 -3 -5 43 c-11 82 -29 93 -93 57z"/>
<path d="M12074 96 c-3 -8 -4 -31 -2 -52 l3 -39 118 -3 c116 -3 117 -2 117 20
0 40 -16 50 -101 69 -101 22 -128 23 -135 5z"/>
<path d="M10492 90 c-29 -4 -56 -10 -59 -13 -2 -3 -8 -22 -13 -41 l-8 -36 114
0 114 0 0 28 c0 15 3 37 6 50 6 21 4 22 -47 21 -30 -1 -78 -5 -107 -9z"/>
<path d="M8743 63 c-86 -21 -103 -28 -103 -44 0 -18 9 -19 141 -19 l140 0 -6
23 c-12 38 -35 67 -53 66 -9 0 -63 -12 -119 -26z"/>
<path d="M10740 71 c-5 -11 -10 -31 -10 -45 l0 -26 136 0 135 0 -6 23 c-4 12
-10 25 -14 29 -5 5 -191 38 -219 38 -6 0 -16 -9 -22 -19z"/>
<path d="M9010 41 l0 -41 105 0 c114 0 123 5 87 51 -16 19 -31 23 -105 27
l-87 5 0 -42z"/>
</g>
</svg>
